/* XPM */
static char * title_2_active_xpm[] = {
"10 15 15 1",
" 	c None",
".	c #000000",
"+	c #262E40",
"@	c #334F8F",
"#	c #30394E",
"$	c #2A3348",
"%	c #2A344A",
"&	c #2C364C",
"*	c #2D374D",
"=	c #2D374F",
"-	c #2F3951",
";	c #2E3A54",
">	c #2F3B57",
",	c #2F3C59",
"'	c #2E3C5A",
"..........",
"+@@@@@@@@@",
"+#########",
"+$$$$$$$$$",
"+%%%%%%%%%",
"+&&&&&&&&&",
"+*********",
"+=========",
"+---------",
"+;;;;;;;;;",
"+>>>>>>>>>",
"+,,,,,,,,,",
"+'''''''''",
"++++++++++",
".........."};
